<?xml version="1.0" encoding="UTF-8" standalone="no"?><!-- Generator: Gravit.io --><svg xmlns="http://www.w3.org/2000/svg" xmlns:xlink="http://www.w3.org/1999/xlink" style="isolation:isolate" viewBox="0 0 24 24" width="24pt" height="24pt"><defs><clipPath id="_clipPath_A4KbCPA7DnQ3f6JlddVY9Jl09NLuxtlD"><rect width="24" height="24"/></clipPath></defs><g clip-path="url(#_clipPath_A4KbCPA7DnQ3f6JlddVY9Jl09NLuxtlD)"><g><defs><filter id="wEigoHKhxFy1vuDCuARHxxaawxPYuAcu" x="-200%" y="-200%" width="400%" height="400%" filterUnits="objectBoundingBox" color-interpolation-filters="sRGB"><feGaussianBlur xmlns="http://www.w3.org/2000/svg" stdDeviation="0"/></filter></defs><g filter="url(#wEigoHKhxFy1vuDCuARHxxaawxPYuAcu)"><path d=" M 23.473 7.061 C 23.614 7.061 23.746 7.117 23.845 7.216 C 23.944 7.313 24 7.447 24 7.588 L 24 16.41 C 24 16.55 23.944 16.684 23.845 16.784 C 23.748 16.883 23.614 16.939 23.473 16.939 C 23.473 16.939 23.473 16.939 23.473 16.939 L 16.942 16.939 L 16.942 23.473 C 16.942 23.614 16.886 23.746 16.787 23.845 C 16.687 23.944 16.553 24 16.415 24 L 7.588 24 C 7.447 24 7.316 23.944 7.216 23.845 C 7.117 23.746 7.061 23.614 7.061 23.473 L 7.061 16.942 L 0.527 16.942 C 0.527 16.942 0.524 16.942 0.521 16.942 C 0.448 16.942 0.377 16.93 0.31 16.901 C 0.26 16.878 0.216 16.845 0.181 16.804 C 0.137 16.749 0.102 16.687 0.076 16.62 C 0.044 16.544 0.018 16.462 0 16.383 L 0 7.588 C 0 7.447 0.056 7.316 0.155 7.216 C 0.254 7.117 0.386 7.061 0.527 7.061 C 0.527 7.061 0.527 7.061 0.527 7.061 L 7.058 7.061 L 7.058 5.704 L 7.058 0.527 C 7.058 0.386 7.114 0.254 7.213 0.155 C 7.313 0.056 7.447 0 7.588 0 L 16.412 0 C 16.55 0 16.684 0.056 16.784 0.155 C 16.883 0.254 16.939 0.386 16.939 0.527 L 16.939 7.061 L 23.473 7.061 C 23.473 7.061 23.473 7.061 23.473 7.061 Z  M 22.362 15.298 L 16.412 15.298 C 16.117 15.298 15.833 15.415 15.626 15.626 C 15.415 15.833 15.298 16.117 15.298 16.412 L 15.298 22.362 L 8.699 22.362 L 8.699 16.412 C 8.699 16.117 8.582 15.833 8.371 15.626 C 8.164 15.415 7.88 15.298 7.588 15.298 L 1.638 15.298 L 1.638 8.696 L 7.588 8.696 C 7.883 8.696 8.167 8.579 8.374 8.371 C 8.582 8.164 8.699 7.88 8.699 7.585 C 8.699 7.585 8.699 7.585 8.699 7.585 L 8.699 1.638 L 15.304 1.638 L 15.304 7.588 C 15.304 7.588 15.304 7.588 15.304 7.588 C 15.304 7.883 15.421 8.167 15.629 8.374 C 15.836 8.582 16.12 8.699 16.415 8.699 L 22.362 8.699 L 22.362 15.298 Z " fill-rule="evenodd" fill="rgb(255,255,255)"/></g></g></g></svg>