<?xml version="1.0" encoding="UTF-8" standalone="no"?><!-- Generator: Gravit.io --><svg xmlns="http://www.w3.org/2000/svg" xmlns:xlink="http://www.w3.org/1999/xlink" style="isolation:isolate" viewBox="0 0 24 24" width="24pt" height="24pt"><defs><clipPath id="_clipPath_7Aonhjo3jMNF8G9dRMabPiAVTBYTXpfv"><rect width="24" height="24"/></clipPath></defs><g clip-path="url(#_clipPath_7Aonhjo3jMNF8G9dRMabPiAVTBYTXpfv)"><g><path d=" M 21 15.554 L 21 15.554 C 21 15.554 21 15.554 21 15.554 C 21 16.698 20.748 17.834 20.28 18.868 C 19.803 19.892 19.146 20.806 18.327 21.554 C 16.581 23.151 14.331 24.018 12 24 C 9.669 24.018 7.419 23.151 5.673 21.554 C 4.854 20.806 4.197 19.892 3.72 18.868 C 3.243 17.824 3 16.689 3 15.535 C 3.018 14.852 3.144 14.169 3.36 13.523 C 3.594 12.766 3.891 12.018 4.224 11.298 C 4.989 9.665 5.853 8.077 6.798 6.554 C 8.031 4.523 9.345 2.539 10.74 0.619 C 10.74 0.619 10.74 0.619 10.74 0.619 L 10.74 0.619 C 10.749 0.61 10.758 0.6 10.767 0.582 C 11.064 0.203 11.523 -0.009 12 0 C 12.486 -0.009 12.945 0.213 13.251 0.6 C 14.646 2.529 15.96 4.505 17.193 6.545 C 18.147 8.068 19.011 9.655 19.776 11.289 C 20.109 12.018 20.397 12.757 20.64 13.523 C 20.856 14.169 20.982 14.843 21 15.526 C 21 15.535 21 15.545 21 15.554 Z  M 12 22.8 C 10.011 22.809 8.085 22.071 6.591 20.714 C 5.151 19.403 4.314 17.52 4.296 15.545 C 4.305 15.046 4.386 14.548 4.53 14.068 C 4.692 13.523 4.89 12.978 5.115 12.452 C 5.655 11.197 6.276 9.979 6.96 8.797 C 8.499 6.12 10.182 3.526 12 1.043 C 13.827 3.526 15.51 6.111 17.04 8.797 C 17.724 9.979 18.345 11.197 18.885 12.452 C 19.119 12.978 19.308 13.523 19.47 14.068 C 19.614 14.548 19.695 15.046 19.704 15.545 C 19.686 17.52 18.849 19.403 17.409 20.714 C 15.915 22.071 13.989 22.809 12 22.8 Z  M 11.982 18.544 C 11.982 18.544 11.991 18.544 11.991 18.544 C 11.991 18.544 12 18.544 12 18.544 L 12 18.544 L 11.955 18.544 C 11.964 18.544 11.973 18.544 11.982 18.544 Z  M 11.982 18.544 C 12.387 18.526 12.783 18.683 13.071 18.969 C 13.368 19.255 13.539 19.652 13.548 20.067 C 13.539 20.492 13.368 20.889 13.062 21.175 C 12.765 21.461 12.369 21.609 11.955 21.591 C 10.335 21.6 8.742 20.981 7.509 19.855 C 6.303 18.766 5.601 17.197 5.592 15.545 C 5.601 15.129 5.772 14.741 6.06 14.455 C 6.348 14.169 6.744 14.021 7.14 14.031 C 7.536 14.021 7.923 14.169 8.211 14.455 C 8.508 14.732 8.67 15.12 8.688 15.526 C 8.697 16.329 9.03 17.095 9.624 17.631 C 10.272 18.221 11.109 18.544 11.982 18.544 Z " fill-rule="evenodd" fill="rgb(255,255,255)"/></g></g></svg>