<?xml version="1.0" encoding="UTF-8" standalone="no"?><!-- Generator: Gravit.io --><svg xmlns="http://www.w3.org/2000/svg" xmlns:xlink="http://www.w3.org/1999/xlink" style="isolation:isolate" viewBox="0 0 24 24" width="24pt" height="24pt"><defs><clipPath id="_clipPath_o71Ko5z0yg2HFB6z19IhT8QBloH7vTyM"><rect width="24" height="24"/></clipPath></defs><g clip-path="url(#_clipPath_o71Ko5z0yg2HFB6z19IhT8QBloH7vTyM)"><g><g><path d=" M 21.487 3.713 L 21.038 2.236 C 20.468 0.558 18.646 -0.34 16.968 0.23 C 16.024 0.551 15.283 1.292 14.962 2.236 L 14.513 3.713 C 14.135 4.959 14.056 6.276 14.282 7.558 C 14.487 8.637 15.173 9.565 16.144 10.078 L 15.641 21.314 C 15.574 21.942 15.777 22.568 16.201 23.036 C 17.111 24.031 18.655 24.1 19.65 23.19 C 19.704 23.141 19.756 23.089 19.805 23.036 C 20.219 22.581 20.422 21.973 20.364 21.361 L 19.859 10.077 C 20.829 9.563 21.513 8.636 21.718 7.558 C 21.944 6.276 21.865 4.959 21.487 3.713 Z  M 20.341 7.315 C 20.19 8.09 19.637 8.726 18.891 8.985 C 18.607 9.091 18.425 9.368 18.438 9.671 L 18.97 21.472 C 18.994 21.703 18.918 21.934 18.76 22.105 C 18.339 22.522 17.661 22.522 17.24 22.105 C 17.074 21.92 16.999 21.671 17.035 21.426 L 17.562 9.671 C 17.575 9.368 17.393 9.091 17.109 8.985 C 16.363 8.726 15.81 8.09 15.659 7.315 C 15.472 6.25 15.538 5.157 15.851 4.123 L 16.3 2.645 C 16.647 1.706 17.69 1.226 18.629 1.574 C 19.125 1.757 19.517 2.149 19.7 2.645 L 20.149 4.123 C 20.462 5.157 20.528 6.25 20.341 7.315 Z " fill="rgb(255,255,255)"/></g></g><g><g><path d=" M 10.417 0.176 C 9.961 0.176 9.591 0.489 9.591 0.875 L 9.591 6.877 L 7.355 8.77 C 7.19 8.909 7.102 9.101 7.113 9.299 L 7.836 21.533 C 7.853 21.797 7.74 22.055 7.524 22.245 C 7.071 22.631 6.335 22.634 5.878 22.251 C 5.876 22.249 5.874 22.247 5.871 22.245 C 5.655 22.055 5.542 21.797 5.559 21.533 L 6.287 9.299 C 6.298 9.102 6.211 8.909 6.046 8.77 L 3.808 6.877 L 3.808 0.875 C 3.808 0.489 3.438 0.176 2.982 0.176 C 2.526 0.176 2.156 0.489 2.156 0.875 L 2.156 7.167 C 2.156 7.352 2.243 7.53 2.398 7.661 L 4.617 9.539 L 3.912 21.465 C 3.838 22.768 5.025 23.875 6.564 23.939 C 8.103 24.002 9.412 22.997 9.487 21.695 C 9.492 21.618 9.492 21.542 9.487 21.465 L 8.783 9.539 L 11.002 7.661 C 11.156 7.53 11.244 7.352 11.244 7.167 L 11.244 0.875 C 11.244 0.489 10.874 0.176 10.417 0.176 Z " fill="rgb(255,255,255)"/></g></g><g><g><path d=" M 5.457 0.059 C 5.071 0.059 4.758 0.372 4.758 0.758 L 4.758 6.351 C 4.758 6.738 5.071 7.051 5.457 7.051 C 5.843 7.051 6.156 6.738 6.156 6.351 L 6.156 0.758 C 6.156 0.372 5.843 0.059 5.457 0.059 Z " fill="rgb(255,255,255)"/></g></g><g><g><path d=" M 7.855 0.176 C 7.469 0.176 7.156 0.489 7.156 0.875 L 7.156 6.469 C 7.156 6.855 7.469 7.168 7.855 7.168 C 8.241 7.168 8.555 6.855 8.555 6.469 L 8.555 0.875 C 8.555 0.489 8.241 0.176 7.855 0.176 Z " fill="rgb(255,255,255)"/></g></g></g></svg>