<?xml version="1.0" encoding="UTF-8" standalone="no"?><!-- Generator: Gravit.io --><svg xmlns="http://www.w3.org/2000/svg" xmlns:xlink="http://www.w3.org/1999/xlink" style="isolation:isolate" viewBox="0 0 24 24" width="24pt" height="24pt"><defs><clipPath id="_clipPath_1sqxlDVIg221esxsPcyi7LUloYsO8Y73"><rect width="24" height="24"/></clipPath></defs><g clip-path="url(#_clipPath_1sqxlDVIg221esxsPcyi7LUloYsO8Y73)"><path d=" M 21.84 20.298 L 17.317 15.775 C 17.169 15.628 17.068 15.434 17.049 15.222 C 17.022 15.018 17.077 14.806 17.188 14.631 C 18.037 13.292 18.489 11.751 18.489 10.172 C 18.489 7.966 17.612 5.843 16.043 4.283 C 14.492 2.723 12.369 1.846 10.163 1.846 C 7.957 1.846 5.843 2.723 4.283 4.283 C 2.723 5.843 1.846 7.957 1.846 10.163 C 1.846 12.369 2.723 14.492 4.283 16.052 C 5.843 17.603 7.957 18.48 10.163 18.48 C 11.742 18.489 13.292 18.037 14.631 17.188 C 14.806 17.077 15.018 17.031 15.222 17.049 C 15.434 17.068 15.628 17.169 15.775 17.317 L 20.298 21.84 C 20.502 22.043 20.778 22.154 21.065 22.154 C 21.36 22.154 21.637 22.043 21.84 21.84 C 22.043 21.637 22.154 21.36 22.154 21.065 C 22.154 20.778 22.043 20.502 21.84 20.298 Z  M 23.142 18.997 L 19.126 14.972 C 19.92 13.495 20.335 11.843 20.335 10.172 C 20.335 7.477 19.265 4.883 17.354 2.982 C 15.443 1.071 12.858 0 10.163 0 C 7.468 0 4.883 1.071 2.982 2.982 C 1.071 4.883 0 7.468 0 10.163 C 0 12.858 1.071 15.443 2.982 17.354 C 4.883 19.255 7.468 20.326 10.163 20.326 C 11.843 20.335 13.495 19.92 14.972 19.126 L 18.997 23.142 C 18.997 23.142 18.997 23.142 18.997 23.142 C 19.542 23.695 20.289 24 21.065 24 C 21.849 24 22.588 23.695 23.142 23.142 C 23.695 22.597 24 21.849 24 21.065 C 24 20.289 23.695 19.542 23.142 18.997 C 23.142 18.997 23.142 18.997 23.142 18.997 Z  M 15.111 18.046 C 13.634 18.978 11.917 19.468 10.163 19.468 C 7.698 19.468 5.335 18.489 3.591 16.745 C 1.846 15 0.868 12.628 0.868 10.163 C 0.868 7.698 1.846 5.335 3.591 3.591 C 5.335 1.846 7.698 0.868 10.163 0.868 C 12.628 0.868 15 1.846 16.745 3.591 C 18.489 5.335 19.468 7.698 19.468 10.172 C 19.468 11.917 18.978 13.634 18.046 15.111 L 22.532 19.606 C 22.532 19.606 22.532 19.606 22.532 19.606 C 22.92 19.994 23.142 20.52 23.142 21.065 C 23.142 21.618 22.92 22.145 22.532 22.532 C 22.145 22.92 21.618 23.142 21.065 23.132 C 20.52 23.142 19.994 22.92 19.606 22.532 C 19.606 22.532 19.606 22.532 19.606 22.532 L 15.111 18.046 Z  M 21.231 21.231 C 21.185 21.268 21.129 21.286 21.074 21.286 C 21.009 21.295 20.954 21.268 20.908 21.222 L 16.135 16.458 C 15.886 16.2 15.535 16.062 15.175 16.062 C 14.898 16.062 14.631 16.145 14.409 16.302 C 13.163 17.16 11.677 17.622 10.163 17.622 C 8.188 17.622 6.295 16.837 4.892 15.434 C 3.498 14.04 2.714 12.138 2.714 10.163 C 2.714 8.188 3.498 6.295 4.892 4.892 C 6.295 3.498 8.188 2.714 10.163 2.714 C 12.138 2.714 14.04 3.498 15.434 4.892 C 16.837 6.295 17.622 8.188 17.622 10.172 C 17.622 11.686 17.16 13.163 16.302 14.409 C 16.145 14.631 16.052 14.898 16.052 15.175 C 16.052 15.535 16.2 15.886 16.449 16.135 L 21.222 20.908 C 21.268 20.954 21.295 21.009 21.295 21.065 C 21.295 21.129 21.268 21.185 21.231 21.231 Z " fill-rule="evenodd" fill="rgb(255,255,255)"/><path d=" M 13.693 6.633 C 13.973 6.913 14.123 7.283 14.123 7.673 C 14.123 8.063 13.973 8.433 13.693 8.713 C 13.693 8.713 13.693 8.713 13.693 8.713 L 12.243 10.163 L 13.693 11.623 C 13.693 11.623 13.693 11.623 13.693 11.623 C 13.973 11.893 14.123 12.273 14.123 12.653 C 14.123 13.043 13.973 13.423 13.693 13.693 C 13.423 13.973 13.043 14.123 12.653 14.123 C 12.263 14.123 11.893 13.973 11.623 13.693 C 11.623 13.693 11.623 13.693 11.623 13.693 L 10.163 12.243 L 8.713 13.693 C 8.713 13.693 8.713 13.693 8.713 13.693 C 8.433 13.973 8.063 14.123 7.673 14.123 C 7.283 14.123 6.913 13.973 6.633 13.693 C 6.363 13.423 6.203 13.043 6.203 12.653 C 6.203 12.273 6.363 11.893 6.633 11.623 C 6.633 11.623 6.633 11.623 6.633 11.623 L 8.093 10.163 L 6.633 8.713 C 6.633 8.713 6.633 8.713 6.633 8.713 C 6.363 8.433 6.203 8.063 6.203 7.673 C 6.203 7.283 6.363 6.913 6.633 6.633 C 6.913 6.363 7.283 6.203 7.673 6.203 C 8.063 6.203 8.433 6.363 8.713 6.633 C 8.713 6.633 8.713 6.633 8.713 6.633 L 10.163 8.093 L 11.623 6.633 C 11.623 6.633 11.623 6.633 11.623 6.633 C 11.893 6.363 12.273 6.203 12.653 6.203 C 13.043 6.203 13.423 6.363 13.693 6.633 Z " fill="rgb(255,255,255)"/></g></svg>