<?xml version="1.0" encoding="UTF-8" standalone="no"?><!-- Generator: Gravit.io --><svg xmlns="http://www.w3.org/2000/svg" xmlns:xlink="http://www.w3.org/1999/xlink" style="isolation:isolate" viewBox="0 0 24 24" width="24pt" height="24pt"><defs><clipPath id="_clipPath_sXqPfDeqHBbtPAR4s8gdkmoJ3TcIluH3"><rect width="24" height="24"/></clipPath></defs><g clip-path="url(#_clipPath_sXqPfDeqHBbtPAR4s8gdkmoJ3TcIluH3)"><path d=" M 12.114 0 C -4.038 0 -4.038 24 12.114 24 C 27.967 24 27.957 0.017 12.114 0 L 12.114 0 L 12.114 0 Z  M 12.114 23.2 C -2.961 23.2 -2.961 0.8 12.114 0.8 C 26.91 0.8 26.9 23.184 12.114 23.2 L 12.114 23.2 L 12.114 23.2 Z " fill-rule="evenodd" fill="rgb(255,255,255)"/><path d=" M 17.155 9.911 L 13.547 9.911 L 13.547 4.167 C 13.547 3.656 12.887 3.445 12.602 3.877 L 12.602 3.877 L 6.416 13.277 C 6.184 13.629 6.417 14.089 6.845 14.089 L 6.845 14.089 L 10.453 14.089 L 10.453 19.833 C 10.453 20.344 11.113 20.555 11.398 20.123 L 11.398 20.123 L 17.584 10.723 C 17.816 10.371 17.583 9.911 17.155 9.911 L 17.155 9.911 L 17.155 9.911 Z  M 11.484 18.11 L 11.484 13.567 C 11.484 13.269 11.269 13.044 10.969 13.044 L 10.969 13.044 L 7.809 13.044 L 12.516 5.89 L 12.516 10.433 C 12.516 10.731 12.731 10.956 13.031 10.956 L 13.031 10.956 L 16.191 10.956 L 11.484 18.11 Z " fill-rule="evenodd" fill="rgb(255,255,255)"/></g></svg>